<svg width="16" height="16" viewBox="0 0 16 16" fill="none" xmlns="http://www.w3.org/2000/svg">
<path d="M1.50498 4.25062C1.18794 4.79888 0.941483 5.38503 0.771484 5.99512C1.14146 6.1833 1.45218 6.47015 1.66926 6.82395C1.88633 7.17775 2.00131 7.5847 2.00146 7.99979C2.00162 8.41487 1.88695 8.82191 1.67014 9.17587C1.45332 9.52983 1.14282 9.81692 0.772984 10.0054C1.11201 11.2313 1.75753 12.3507 2.64873 13.2581C2.9968 13.0318 3.4007 12.9063 3.81572 12.8953C4.23074 12.8843 4.6407 12.9884 5.00023 13.196C5.35977 13.4036 5.65485 13.7066 5.85283 14.0715C6.05081 14.4365 6.14396 14.849 6.12198 15.2636C7.35357 15.5819 8.64591 15.5814 9.87724 15.2621C9.85545 14.8475 9.94879 14.435 10.1469 14.0702C10.3451 13.7054 10.6403 13.4025 10.9999 13.1951C11.3595 12.9876 11.7694 12.8837 12.1844 12.8949C12.5994 12.906 13.0033 13.0317 13.3512 13.2581C13.7855 12.8156 14.171 12.3124 14.495 11.7506C14.8197 11.1889 15.0627 10.6031 15.2285 10.0061C14.8585 9.81795 14.5478 9.53109 14.3307 9.17729C14.1136 8.82349 13.9987 8.41654 13.9985 8.00146C13.9984 7.58637 14.113 7.17933 14.3298 6.82537C14.5466 6.47141 14.8571 6.18432 15.227 5.99587C14.888 4.76999 14.2424 3.65059 13.3512 2.74312C13.0032 2.96941 12.5993 3.09499 12.1843 3.10596C11.7692 3.11692 11.3593 3.01284 10.9997 2.80525C10.6402 2.59765 10.3451 2.29462 10.1471 1.9297C9.94916 1.56478 9.856 1.1522 9.87799 0.737621C8.6464 0.419338 7.35406 0.419855 6.12273 0.739122C6.14452 1.1537 6.05118 1.56621 5.85305 1.93103C5.65492 2.29584 5.35972 2.59873 5.00011 2.80617C4.64051 3.01361 4.23053 3.11751 3.81553 3.10639C3.40053 3.09526 2.99671 2.96953 2.64873 2.74312C2.20548 3.19541 1.82118 3.70193 1.50498 4.25062ZM5.74998 4.10362C6.5492 3.64265 7.15012 2.90286 7.43748 2.02612C7.81173 1.99087 8.18748 1.99012 8.56173 2.02537C8.84929 2.90223 9.45048 3.64204 10.25 4.10287C11.0489 4.56511 11.9904 4.71601 12.8937 4.52662C13.1112 4.83262 13.2987 5.15887 13.4547 5.50012C12.8393 6.18754 12.4993 7.07796 12.5 8.00062C12.5 8.94562 12.8525 9.82837 13.4547 10.5011C13.2976 10.8423 13.1093 11.1681 12.8922 11.4746C11.9894 11.2854 11.0486 11.436 10.25 11.8976C9.45076 12.3586 8.84985 13.0984 8.56248 13.9751C8.18823 14.0104 7.81248 14.0111 7.43823 13.9759C7.15068 13.099 6.54949 12.3592 5.74998 11.8984C4.95107 11.4361 4.00959 11.2852 3.10623 11.4746C2.88916 11.1684 2.70133 10.8425 2.54523 10.5011C3.16066 9.8137 3.50065 8.92328 3.49998 8.00062C3.49998 7.05562 3.14748 6.17287 2.54523 5.50012C2.70234 5.15898 2.89064 4.8331 3.10773 4.52662C4.01052 4.71585 4.95139 4.56523 5.74998 4.10362ZM7.99998 5.75062C7.40325 5.75062 6.83095 5.98767 6.40899 6.40963C5.98704 6.83159 5.74998 7.40388 5.74998 8.00062C5.74998 8.59736 5.98704 9.16965 6.40899 9.59161C6.83095 10.0136 7.40325 10.2506 7.99998 10.2506C8.59672 10.2506 9.16902 10.0136 9.59097 9.59161C10.0129 9.16965 10.25 8.59736 10.25 8.00062C10.25 7.40388 10.0129 6.83159 9.59097 6.40963C9.16902 5.98767 8.59672 5.75062 7.99998 5.75062ZM7.99998 7.25062C8.1989 7.25062 8.38966 7.32964 8.53031 7.47029C8.67097 7.61094 8.74998 7.80171 8.74998 8.00062C8.74998 8.19953 8.67097 8.3903 8.53031 8.53095C8.38966 8.6716 8.1989 8.75062 7.99998 8.75062C7.80107 8.75062 7.61031 8.6716 7.46965 8.53095C7.329 8.3903 7.24998 8.19953 7.24998 8.00062C7.24998 7.80171 7.329 7.61094 7.46965 7.47029C7.61031 7.32964 7.80107 7.25062 7.99998 7.25062Z" fill="#FEFEFE" stroke="#03522D" stroke-width="0.5"/>
</svg>
